<svg width="174" height="85" viewBox="0 0 174 85" fill="none" xmlns="http://www.w3.org/2000/svg">
<path d="M25.84 71.19H22.06V70.5H30.385V71.19H26.605V81H25.84V71.19ZM40.8321 70.5V81H40.0671V76.005H33.0471V81H32.2821V70.5H33.0471V75.33H40.0671V70.5H40.8321ZM51.7439 80.31V81H44.4989V70.5H51.5189V71.19H45.2639V75.33H50.8589V76.005H45.2639V80.31H51.7439ZM65.6307 80.31V81H58.3857V70.5H65.4057V71.19H59.1507V75.33H64.7457V76.005H59.1507V80.31H65.6307ZM76.6584 70.5L71.9784 81H71.2134L66.5334 70.5H67.3734L71.6184 80.01L75.8634 70.5H76.6584ZM82.7039 81.075C81.6739 81.075 80.7439 80.845 79.9139 80.385C79.0839 79.915 78.4289 79.275 77.9489 78.465C77.4789 77.655 77.2439 76.75 77.2439 75.75C77.2439 74.75 77.4789 73.845 77.9489 73.035C78.4289 72.225 79.0839 71.59 79.9139 71.13C80.7439 70.66 81.6739 70.425 82.7039 70.425C83.7339 70.425 84.6639 70.655 85.4939 71.115C86.3239 71.575 86.9739 72.21 87.4439 73.02C87.9239 73.83 88.1639 74.74 88.1639 75.75C88.1639 76.76 87.9239 77.67 87.4439 78.48C86.9739 79.29 86.3239 79.925 85.4939 80.385C84.6639 80.845 83.7339 81.075 82.7039 81.075ZM82.7039 80.37C83.5839 80.37 84.3789 80.17 85.0889 79.77C85.7989 79.37 86.3589 78.82 86.7689 78.12C87.1789 77.41 87.3839 76.62 87.3839 75.75C87.3839 74.88 87.1789 74.095 86.7689 73.395C86.3589 72.685 85.7989 72.13 85.0889 71.73C84.3789 71.33 83.5839 71.13 82.7039 71.13C81.8239 71.13 81.0239 71.33 80.3039 71.73C79.5939 72.13 79.0339 72.685 78.6239 73.395C78.2139 74.095 78.0089 74.88 78.0089 75.75C78.0089 76.62 78.2139 77.41 78.6239 78.12C79.0339 78.82 79.5939 79.37 80.3039 79.77C81.0239 80.17 81.8239 80.37 82.7039 80.37ZM90.8173 70.5H91.5823V80.31H97.6273V81H90.8173V70.5ZM103.497 81.075C102.167 81.075 101.132 80.69 100.392 79.92C99.6616 79.15 99.2966 78.025 99.2966 76.545V70.5H100.062V76.515C100.062 77.805 100.357 78.77 100.947 79.41C101.537 80.05 102.392 80.37 103.512 80.37C104.622 80.37 105.472 80.05 106.062 79.41C106.652 78.77 106.947 77.805 106.947 76.515V70.5H107.712V76.545C107.712 78.025 107.342 79.15 106.602 79.92C105.862 80.69 104.827 81.075 103.497 81.075ZM113.086 71.19H109.306V70.5H117.631V71.19H113.851V81H113.086V71.19ZM119.528 70.5H120.293V81H119.528V70.5ZM128.407 81.075C127.377 81.075 126.447 80.845 125.617 80.385C124.787 79.915 124.132 79.275 123.652 78.465C123.182 77.655 122.947 76.75 122.947 75.75C122.947 74.75 123.182 73.845 123.652 73.035C124.132 72.225 124.787 71.59 125.617 71.13C126.447 70.66 127.377 70.425 128.407 70.425C129.437 70.425 130.367 70.655 131.197 71.115C132.027 71.575 132.677 72.21 133.147 73.02C133.627 73.83 133.867 74.74 133.867 75.75C133.867 76.76 133.627 77.67 133.147 78.48C132.677 79.29 132.027 79.925 131.197 80.385C130.367 80.845 129.437 81.075 128.407 81.075ZM128.407 80.37C129.287 80.37 130.082 80.17 130.792 79.77C131.502 79.37 132.062 78.82 132.472 78.12C132.882 77.41 133.087 76.62 133.087 75.75C133.087 74.88 132.882 74.095 132.472 73.395C132.062 72.685 131.502 72.13 130.792 71.73C130.082 71.33 129.287 71.13 128.407 71.13C127.527 71.13 126.727 71.33 126.007 71.73C125.297 72.13 124.737 72.685 124.327 73.395C123.917 74.095 123.712 74.88 123.712 75.75C123.712 76.62 123.917 77.41 124.327 78.12C124.737 78.82 125.297 79.37 126.007 79.77C126.727 80.17 127.527 80.37 128.407 80.37ZM145.07 70.5V81H144.44L137.285 71.88V81H136.52V70.5H137.165L144.305 79.62V70.5H145.07Z" fill="white"/>
<g clip-path="url(#clip0_25_7)">
<path d="M66.846 49.9994C60.3597 45.8048 51.634 45.1057 37.5031 48.9895C22.4455 52.5627 17.4264 54.8153 10.7856 50.2324C8.23736 47.9797 7.31075 44.3289 8.00572 39.1246C9.55009 30.5801 13.7971 22.424 21.3645 13.3358C25.6115 8.59748 29.4724 4.55828 34.646 2.92707C38.5841 1.91725 38.1981 5.02435 37.7348 5.49041C37.1942 5.49041 36.3448 5.56808 35.7271 6.03414C35.1866 6.42253 33.7194 7.82072 33.6422 9.60728C33.565 12.4036 36.3448 11.7822 37.5803 10.3064C38.893 8.59748 40.8235 5.33505 39.3563 2.30564C38.7386 1.21816 37.5803 0.441393 36.1904 0.208362C31.4801 -0.102337 27.0786 2.22797 22.9861 4.71362C14.106 10.9278 7.00189 19.5499 2.98654 28.9489C0.669982 34.6193 -1.41491 42.7754 1.75104 49.3779C4.22202 53.9609 9.2412 56.4465 15.2642 55.9028C19.5112 55.4367 24.6076 54.1162 28.0053 53.2618C31.4801 52.4073 49.0086 46.3485 54.8 56.9126C54.8 56.9126 56.7304 53.1841 61.518 53.1064C65.4561 52.718 71.1703 54.2716 75.34 57.301C74.0274 55.2037 70.1664 52.0966 66.846 49.9994Z" fill="white"/>
<path d="M39.2791 14.4232C35.9588 12.2482 29.3952 16.4428 24.0671 23.5114C19.2024 29.8809 17.1175 37.3379 19.434 40.7557C22.8316 44.7949 29.0863 38.8914 31.789 35.7844L32.0978 35.396C33.9511 33.4541 35.341 31.0461 36.6537 28.7934C36.6537 28.7934 37.8892 26.6962 37.9664 26.6185C38.7386 26.4631 39.6652 26.2301 40.7463 25.9194C40.7463 25.9971 36.7309 32.755 37.117 36.0951C37.2715 37.1049 37.117 40.8334 40.7463 41.9985C45.611 42.7753 49.4719 39.0468 52.8696 35.7067C52.8696 35.7067 53.4873 35.1629 53.7962 34.8522C53.7189 35.1629 53.6417 35.629 53.6417 35.629C52.2518 40.6003 54.105 41.6102 55.3405 41.9985C58.9698 43.086 63.294 37.804 63.294 37.804C63.2168 39.4352 62.8307 40.8334 64.6067 41.9209C66.2283 42.5423 67.9271 41.6102 69.1626 40.7557C73.7185 37.4933 77.3477 32.4442 80.3592 28.0943H78.506C78.506 28.0943 73.8729 34.8522 70.8614 36.3281C70.8614 36.3281 70.3209 36.6388 70.012 36.4058C69.6259 36.0951 69.7804 35.396 70.012 34.8522L81.6719 14.5785H76.1895L75.5717 15.5883C75.5717 15.5883 75.4173 15.3553 75.4173 15.2776C72.0197 10.5393 64.2978 17.841 58.5065 26.2301C56.2671 29.4925 53.4101 33.1433 50.4758 35.7844C50.4758 35.7844 46.1516 39.8236 44.2211 36.9495C43.5261 35.7067 43.7578 33.9978 44.1439 32.8326C46.306 26.6185 50.0897 20.9481 54.3367 17.608C55.5722 16.6758 56.8077 16.3651 57.5026 16.8312C58.1204 17.2196 58.1976 18.074 57.8115 18.6954C56.8077 18.6954 56.0355 18.9284 55.4178 19.6275C54.1823 20.9481 53.7189 22.2686 54.1051 23.5114C56.0355 26.3078 59.9736 20.7927 59.8192 17.3749C59.742 16.1321 59.1242 15.0446 58.1204 14.4232C56.6532 13.5687 54.4911 13.8018 53.1012 14.5009C51.1707 15.1999 48.2365 17.7633 46.4604 19.7052C44.2211 22.1132 40.5146 24.8319 39.2791 24.5989C39.4336 23.5114 42.6767 16.9089 39.2791 14.4232ZM65.765 24.1328C66.846 22.6569 69.9348 18.6954 70.707 17.9963C73.2552 15.7437 74.259 16.7535 74.3362 17.4526C71.9424 21.7248 69.1626 26.6185 66.5372 31.0461L65.6878 32.2889C64.5295 34.0755 63.3712 35.629 61.4408 36.7165C61.1319 36.7942 60.7458 36.7942 60.4369 36.6388C60.0509 36.4058 59.8964 36.0174 59.9736 35.5513C60.0508 34.1532 61.4408 29.9586 65.765 24.1328ZM35.8815 26.7738L35.8043 26.9292L33.4105 30.813C31.9434 32.755 30.1674 35.1629 27.928 36.3281C27.2331 36.5611 26.3065 36.7165 25.8431 36.0951C24.8393 34.9299 25.3798 33.221 25.7659 31.9005L25.9204 31.4345C27.0786 28.172 29.0091 25.298 30.8623 22.6569H30.9396V22.7346C32.0978 24.9873 34.2599 25.9971 35.8815 26.4631V26.5408C35.9587 26.5408 35.9587 26.6185 35.8815 26.7738ZM38.1981 22.1132L37.117 24.5989C36.9626 24.7542 36.7309 24.6765 36.422 24.5989L35.9587 24.5212C34.4916 24.0551 33.3333 23.0453 33.0244 21.8802C32.5611 19.5499 34.4916 17.7633 35.341 17.1419C36.1904 16.5981 37.4259 16.2874 38.1981 16.8312C38.6614 17.3749 38.8158 18.074 38.8158 18.8508C38.8158 19.8606 38.5069 21.0257 38.1981 22.1132ZM107.463 29.5702C106.922 28.405 105.687 27.706 104.374 27.7836C100.05 28.172 95.8029 31.7452 93.5636 36.9495C92.4053 39.5905 91.7876 41.7655 91.3243 45.261C92.637 43.7074 95.4168 41.1441 98.5827 39.7459C98.5827 39.7459 99.0461 36.4058 101.208 33.4541C102.058 32.2112 103.679 30.2693 105.532 30.7354C107.154 31.2791 106.613 35.7844 104.451 40.1343C102.83 43.319 100.436 46.5038 97.965 48.7564C95.8029 50.6207 92.5597 52.8733 89.7799 51.0867C88.0039 49.9993 87.0772 47.8243 87.3089 44.9503C88.1583 36.8718 91.7876 30.0363 97.0384 22.1909C102.444 14.8892 108.389 7.43225 116.343 3.47072C117.965 2.61626 119.509 2.46093 120.822 2.92699C120.822 2.92699 113.331 7.04385 109.702 14.7339C108.776 16.6758 107.54 19.3168 108.776 21.6471C109.471 22.89 110.629 22.9677 111.555 22.89C115.957 21.8802 118.814 17.7633 121.131 13.9571C122.443 11.0831 123.679 8.2867 123.679 5.10194C123.679 4.71354 123.679 4.16981 123.601 3.85911C125.686 2.77163 130.011 4.71354 130.011 4.71354C133.331 5.80103 140.512 11.3161 142.906 12.4036C144.064 11.0054 145.995 8.9858 147.076 7.89831L145.531 6.88852C142.983 5.33497 140.358 3.85911 137.732 2.38323C131.787 -0.879203 126.922 0.285952 124.451 1.14041C123.447 1.5288 122.598 1.76183 122.598 1.76183C120.744 -0.257779 117.733 -0.0247474 115.571 0.518983C107.617 2.84929 100.204 8.44204 92.2509 18.1517C86.4595 25.764 82.8302 32.3666 80.8998 38.8914C79.4326 43.2414 78.9693 49.6885 82.5986 53.4947C85.6873 56.7572 89.7799 56.0581 92.6369 54.8929C98.8916 51.7858 104.529 45.1056 107.308 37.4156C107.926 35.2406 108.698 31.9782 107.463 29.5702ZM121.903 5.49033C121.053 15.0446 113.718 20.6374 111.864 21.1034C110.783 21.3364 108.853 20.8704 110.552 16.8312C113.023 11.3938 117.27 6.81082 121.825 4.48051C121.903 4.86891 121.903 5.10194 121.903 5.49033ZM165.685 6.65549C161.747 8.9081 157.577 10.384 152.636 9.91792C151.246 11.4714 149.933 13.1027 148.697 14.7339C155.724 16.5205 163.137 12.5589 167.23 8.75277C171.631 4.94657 173.871 0.130615 173.871 0.130615C173.871 0.130615 170.55 3.93678 165.685 6.65549ZM90.6293 14.6562H85.4557L82.5214 19.4722H87.695L90.6293 14.6562Z" fill="white"/>
<path d="M152.558 50.4653C152.018 50.8537 151.246 50.543 151.477 49.6886C152.172 47.4359 155.107 42.9307 155.107 42.9307L163.214 28.4827H157.655C157.423 28.9488 156.805 29.9586 156.805 29.9586C156.574 29.4925 155.801 28.5604 155.493 28.3274C154.103 27.4729 152.172 27.8613 150.782 28.6381C144.836 32.1336 140.435 39.1245 137.037 44.4842C137.037 44.4842 133.408 50.543 131.401 50.9314C129.856 51.0867 130.011 48.9118 130.088 48.4457C130.706 44.8726 132.095 41.4548 133.485 38.3477C136.342 36.3281 139.663 33.6871 142.674 30.813C149.161 24.5989 154.643 17.4526 155.415 15.899C155.415 15.899 154.566 16.0544 153.562 16.1321C148.543 23.123 138.35 33.2987 135.261 34.8523C136.651 31.5121 145.531 15.666 153.099 8.05368L154.257 6.88852C156.11 5.10194 157.964 3.23769 159.508 2.92699C159.662 2.92699 159.894 2.92699 160.048 3.31536C160.126 4.71355 159.585 5.72337 158.967 6.96619L158.118 8.67508C158.118 8.67508 159.276 8.44205 160.048 8.20902C160.975 6.50013 161.979 4.55821 161.593 2.30557C161.438 1.60648 160.975 0.985051 160.28 0.907383C158.041 0.441321 155.57 2.15021 153.562 3.54839L153.485 3.62609C143.292 11.6268 134.721 23.2007 127.231 38.8915C126.69 39.2798 124.605 39.8236 124.219 39.5905C124.991 38.037 125.918 36.0174 126.381 33.7648C126.459 33.1433 126.536 32.4443 126.536 31.8229C126.536 30.4247 126.227 29.1818 124.991 28.2497C123.524 27.5506 121.748 27.8613 120.59 28.4051C115.262 30.6577 111.247 36.1727 108.312 40.7557C106.768 43.6297 105.224 46.7368 104.76 50.31C104.451 53.1063 105.069 54.8929 106.613 55.7474C108.235 56.6018 110.243 55.7474 111.092 55.2813C116.497 52.4073 120.281 46.6591 123.293 41.3771C123.447 41.3771 125.069 41.2994 126.304 40.9887H126.381C126.304 41.2218 125.686 43.1637 125.686 43.1637C123.756 48.7564 122.907 52.5626 124.683 54.8152C127.231 58 131.478 54.7376 134.953 50.3876C134.18 55.592 136.883 56.4465 138.968 55.9804C141.284 55.359 143.91 52.7957 145.145 51.5528C144.759 53.1064 144.836 55.7474 146.999 56.0581C148.466 56.3688 149.547 55.5143 150.86 54.8152C155.415 52.3296 160.821 44.0181 162.288 41.6102H160.357C158.35 44.5619 155.801 48.5234 152.558 50.4653ZM111.71 49.9216C111.401 49.4555 111.324 48.9895 111.324 48.5234C111.247 45.4163 114.644 39.7459 116.961 36.7165C117.965 38.8915 120.204 40.2896 121.517 40.9111C119.895 44.6396 114.181 52.718 111.71 49.9216ZM122.52 39.2022C122.366 39.2798 119.509 38.3477 118.968 35.7067C118.505 33.4541 120.049 31.6675 121.594 30.7354C122.212 30.1916 123.215 30.0363 123.91 30.2693C124.605 30.7354 124.76 31.5121 124.76 32.3666C124.76 32.9103 124.683 33.4541 124.605 33.9201V33.9978C124.142 35.862 123.447 37.6486 122.52 39.2022ZM145.223 48.9118L144.682 49.3779C143.91 50.0769 143.138 50.776 142.211 50.4653C141.979 50.3876 141.748 49.9993 141.748 49.7662C141.671 47.8243 142.597 45.9601 143.447 44.1735L143.678 43.7074C146.149 39.5905 149.006 34.6969 153.176 31.3568C153.871 30.813 154.643 30.4247 155.493 30.7354C155.647 30.8907 155.879 31.2014 155.879 31.5121C155.879 31.5898 155.801 31.9005 155.724 31.9782C154.566 33.8424 153.408 35.862 152.327 37.804C150.165 41.5325 148.002 45.4163 145.223 48.9118Z" fill="white"/>
<path d="M158.581 57.8446C156.96 57.8446 155.647 56.5241 155.647 54.8929C155.647 53.2617 156.96 51.9412 158.581 51.9412C160.203 51.9412 161.516 53.2617 161.516 54.8929C161.593 56.5241 160.28 57.8446 158.581 57.8446ZM158.581 52.5626C157.269 52.5626 156.265 53.65 156.265 54.8929C156.265 56.1357 157.346 57.2232 158.581 57.2232C159.817 57.2232 160.898 56.1357 160.898 54.8929C160.898 53.65 159.894 52.5626 158.581 52.5626Z" fill="white"/>
<path d="M158.427 54.6599C158.581 54.6599 158.736 54.6599 158.813 54.5822C158.89 54.5045 158.89 54.4269 158.89 54.2715C158.89 54.1161 158.89 54.0385 158.813 53.9608C158.736 53.8831 158.659 53.8831 158.427 53.8831H158.118V54.6599H158.427ZM158.118 55.2036V56.3688H157.346V53.2617H158.581C158.967 53.2617 159.276 53.3394 159.508 53.4948C159.662 53.6501 159.817 53.8831 159.817 54.1162C159.817 54.3492 159.74 54.5045 159.662 54.6599C159.585 54.8152 159.431 54.8929 159.199 54.9706C159.276 54.9706 159.431 55.0483 159.508 55.126C159.585 55.2036 159.662 55.359 159.74 55.5143L160.203 56.3688H159.354L158.967 55.592C158.89 55.4367 158.813 55.359 158.736 55.2813C158.659 55.2036 158.581 55.2036 158.427 55.2036H158.118Z" fill="white"/>
</g>
<defs>
<clipPath id="clip0_25_7">
<rect width="174" height="58" fill="white"/>
</clipPath>
</defs>
</svg>
